<svg height="512pt" viewBox="-46 0 512 512.001" width="512pt" xmlns="http://www.w3.org/2000/svg"><path d="m338.785156 504.5h-257.230468c-40.898438 0-74.054688-33.15625-74.054688-74.054688v-200.800781c0-8.894531 4.117188-17.289062 11.144531-22.738281l140.691407-109.039062c5.042968-3.90625 11.242187-6.027344 17.625-6.027344h207.113281c15.890625 0 28.769531 12.878906 28.769531 28.765625v309.839843c0 40.898438-33.15625 74.054688-74.058594 74.054688zm0 0" fill="#f76937"/><path d="m384.074219 91.839844h-40.394531c15.886718 0 28.765624 12.878906 28.765624 28.765625v309.839843c0 40.898438-33.15625 74.054688-74.054687 74.054688h40.394531c40.902344 0 74.058594-33.15625 74.058594-74.054688v-309.839843c0-15.886719-12.878906-28.765625-28.769531-28.765625zm0 0" fill="#ea552d"/><path d="m222.457031 60.1875h132.246094v31.652344h-132.246094zm0 0" fill="#bebebe"/><path d="m327.359375 60.1875h27.34375v31.652344h-27.34375zm0 0" fill="#aaa"/><path d="m199.234375 7.5h178.691406v52.6875h-178.691406zm0 0" fill="#5a5a5a"/><path d="m352.582031 7.5h25.34375v52.6875h-25.34375zm0 0" fill="#464646"/><path d="m263.238281 313.171875c0 29.304687-23.761719 53.0625-53.066406 53.0625-29.308594 0-53.066406-23.757813-53.066406-53.0625 0-29.308594 53.066406-83.066406 53.066406-83.066406s53.066406 53.757812 53.066406 83.066406zm0 0" fill="#5a5a5a"/><path d="m210.171875 230.105469s-4.980469 5.046875-11.890625 12.886719c15.644531 17.753906 41.175781 49.847656 41.175781 70.179687 0 25.214844-17.59375 46.308594-41.175781 51.710937 3.824219.875 7.800781 1.351563 11.890625 1.351563 29.304687 0 53.066406-23.757813 53.066406-53.0625 0-29.308594-53.066406-83.066406-53.066406-83.066406zm0 0" fill="#464646"/><path d="m297.347656 221.601562 30.742188-30.742187c2.929687-2.929687 2.929687-7.675781 0-10.605469-2.929688-2.929687-7.679688-2.929687-10.605469 0l-30.742187 30.738282c-2.929688 2.933593-2.929688 7.679687 0 10.609374 2.929687 2.925782 7.675781 2.925782 10.605468 0zm0 0"/><path d="m92.253906 416.089844c2.929688 2.925781 7.679688 2.925781 10.605469 0l30.742187-30.742188c2.929688-2.929687 2.929688-7.679687 0-10.609375-2.929687-2.925781-7.679687-2.925781-10.605468 0l-30.742188 30.742188c-2.929687 2.929687-2.929687 7.675781 0 10.609375zm0 0"/><path d="m284.652344 387.140625 30 31.460937c1.476562 1.546876 3.449218 2.324219 5.429687 2.324219 6.527344 0 10-7.878906 5.425781-12.675781l-30-31.460938c-2.859374-3-7.605468-3.109374-10.605468-.253906-3 2.859375-3.109375 7.609375-.25 10.605469zm0 0"/><path d="m135.441406 219.804688c2.996094-2.859376 3.109375-7.605469.25-10.605469l-30-31.460938c-2.859375-3-7.605468-3.109375-10.605468-.253906-2.996094 2.859375-3.109376 7.605469-.25 10.605469l30 31.460937c2.863281 3.003907 7.609374 3.105469 10.605468.253907zm0 0"/><path d="m236.96875 47.734375c4.140625 0 7.5-3.355469 7.5-7.5v-12.78125c0-4.140625-3.359375-7.5-7.5-7.5-4.144531 0-7.5 3.359375-7.5 7.5v12.78125c0 4.144531 3.355469 7.5 7.5 7.5zm0 0"/><path d="m288.582031 47.734375c4.140625 0 7.5-3.355469 7.5-7.5v-12.78125c0-4.140625-3.359375-7.5-7.5-7.5-4.144531 0-7.5 3.359375-7.5 7.5v12.78125c0 4.144531 3.359375 7.5 7.5 7.5zm0 0"/><path d="m340.195312 47.734375c4.144532 0 7.5-3.355469 7.5-7.5v-12.78125c0-4.140625-3.355468-7.5-7.5-7.5-4.144531 0-7.5 3.359375-7.5 7.5v12.78125c0 4.144531 3.359376 7.5 7.5 7.5zm0 0"/><path d="m210.171875 241.015625c6.898437 7.46875 19.21875 21.425781 29.351563 36.15625 2.347656 3.414063 7.015624 4.277344 10.429687 1.933594 3.414063-2.347657 4.277344-7.015625 1.929687-10.429688-15.648437-22.765625-35.535156-42.988281-36.371093-43.839843-3.050781-3.089844-7.84375-2.867188-10.675781 0-5.652344 5.726562-55.226563 56.859374-55.226563 88.335937 0 33.394531 27.167969 60.5625 60.5625 60.5625 33.398437 0 60.566406-27.167969 60.566406-60.5625 0-5.28125-1.28125-11.089844-3.917969-17.761719-1.523437-3.851562-5.882812-5.734375-9.734374-4.214844-3.851563 1.523438-5.738282 5.878907-4.214844 9.730469 1.902344 4.8125 2.867187 8.933594 2.867187 12.242188 0 25.125-20.441406 45.566406-45.566406 45.566406s-45.5625-20.441406-45.5625-45.566406c0-10.136719 8.832031-27.113281 24.867187-47.8125 7.800782-10.0625 15.679688-18.914063 20.695313-24.339844zm0 0"/><path d="m384.074219 84.339844h-21.871094v-16.652344h15.722656c4.144531 0 7.5-3.355469 7.5-7.5v-52.6875c0-4.144531-3.355469-7.5-7.5-7.5h-178.691406c-4.140625 0-7.5 3.355469-7.5 7.5v52.6875c0 4.144531 3.359375 7.5 7.5 7.5h15.722656v16.652344h-38c-8 0-15.890625 2.699218-22.214843 7.601562l-140.691407 109.035156c-8.796875 6.820313-14.050781 17.535157-14.050781 28.667969v100.679688c0 4.140625 3.359375 7.5 7.5 7.5s7.5-3.359375 7.5-7.5v-100.679688c0-6.527343 3.082031-12.8125 8.238281-16.808593l140.691407-109.039063c3.710937-2.875 8.335937-4.457031 13.03125-4.457031h207.117187c11.726563 0 21.265625 9.539062 21.265625 21.265625v309.839843c0 36.699219-29.855469 66.554688-66.554688 66.554688h-257.230468c-36.699219 0-66.558594-29.855469-66.558594-66.554688v-74.875c0-4.144531-3.355469-7.5-7.5-7.5-4.140625 0-7.5 3.355469-7.5 7.5v74.875c0 44.96875 36.585938 81.554688 81.558594 81.554688h257.230468c44.96875 0 81.554688-36.585938 81.554688-81.554688v-309.839843c0-19.996094-16.269531-36.265625-36.269531-36.265625zm-177.339844-69.339844h163.691406v37.6875c-20.308593 0-142.9375 0-163.691406 0zm23.222656 69.339844v-16.652344h117.246094v16.652344zm0 0"/></svg>